<?xml version="1.0" encoding="utf-8" standalone="no"?>
<!DOCTYPE svg PUBLIC "-//W3C//DTD SVG 1.1//EN"
  "http://www.w3.org/Graphics/SVG/1.1/DTD/svg11.dtd">
<svg xmlns:xlink="http://www.w3.org/1999/xlink" width="720pt" height="360pt" viewBox="0 0 720 360" xmlns="http://www.w3.org/2000/svg" version="1.1">
 <metadata>
  <rdf:RDF xmlns:dc="http://purl.org/dc/elements/1.1/" xmlns:cc="http://creativecommons.org/ns#" xmlns:rdf="http://www.w3.org/1999/02/22-rdf-syntax-ns#">
   <cc:Work>
    <dc:type rdf:resource="http://purl.org/dc/dcmitype/StillImage"/>
    <dc:date>2023-06-05T15:24:22.053730</dc:date>
    <dc:format>image/svg+xml</dc:format>
    <dc:creator>
     <cc:Agent>
      <dc:title>Matplotlib v3.7.1, https://matplotlib.org/</dc:title>
     </cc:Agent>
    </dc:creator>
   </cc:Work>
  </rdf:RDF>
 </metadata>
 <defs>
  <style type="text/css">*{stroke-linejoin: round; stroke-linecap: butt}</style>
 </defs>
 <g id="figure_1">
  <g id="patch_1">
   <path d="M 0 360 
L 720 360 
L 720 0 
L 0 0 
z
" style="fill: #ffffff"/>
  </g>
  <g id="axes_1">
   <g id="patch_2">
    <path d="M 90 320.4 
L 648 320.4 
L 648 43.2 
L 90 43.2 
z
" style="fill: #ffffff"/>
   </g>
   <g id="line2d_1">
    <path d="M 90 320.4 
L 648 320.4 
" clip-path="url(#pf8726d9a68)" style="fill: none; stroke: #000000; stroke-width: 0.5; stroke-linecap: square"/>
   </g>
   <g id="patch_3">
    <path d="M 113.02199 312.186226 
L 100.240301 312.186226 
L 98.222139 320.4 
L 90 320.4 
L 101.74203 275.311212 
L 111.49308 275.311212 
L 123.23511 320.4 
L 115.019766 320.4 
L 113.02199 312.186226 
z
M 102.278848 303.81784 
L 110.963057 303.81784 
L 106.627748 285.882822 
L 102.278848 303.81784 
z
" clip-path="url(#pf8726d9a68)" style="fill: #1f77b4"/>
   </g>
   <g id="patch_4">
    <path d="M 90 230.222423 
L 95.746863 230.222423 
L 99.764184 262.99055 
L 103.7516 230.222423 
L 109.528368 230.222423 
L 113.515784 262.99055 
L 117.53809 230.222423 
L 123.23511 230.222423 
L 117.752413 275.311212 
L 110.839231 275.311212 
L 106.617555 241.035615 
L 102.445721 275.311212 
L 95.527555 275.311212 
L 90 230.222423 
z
" clip-path="url(#pf8726d9a68)" style="fill: #c7c7c7"/>
   </g>
   <g id="patch_5">
    <path d="M 90 185.133635 
L 99.804037 185.133635 
L 106.604747 209.262804 
L 113.450284 185.133635 
L 123.23511 185.133635 
L 123.23511 230.222423 
L 115.954123 230.222423 
L 115.954123 197.241704 
L 109.070165 221.554476 
L 104.184156 221.554476 
L 97.300198 197.241704 
L 97.300198 230.222423 
L 90 230.222423 
L 90 185.133635 
z
" clip-path="url(#pf8726d9a68)" style="fill: #9edae5"/>
   </g>
   <g id="patch_6">
    <path d="M 90 94.956058 
L 99.18853 94.956058 
L 106.610573 127.096073 
L 114.025633 94.956058 
L 123.23511 94.956058 
L 110.820819 147.137682 
L 110.820819 185.133635 
L 102.421273 185.133635 
L 102.421273 147.137682 
L 90 94.956058 
z
" clip-path="url(#pf8726d9a68)" style="fill: #dbdb8d"/>
   </g>
   <g id="patch_7">
    <path d="M 125.330212 245.252019 
L 157.87355 245.252019 
L 157.87355 252.579994 
L 137.391098 252.579994 
L 137.391098 259.569755 
L 156.660443 259.569755 
L 156.660443 266.89773 
L 137.391098 266.89773 
L 137.391098 282.82601 
L 125.330212 282.82601 
L 125.330212 245.252019 
z
" clip-path="url(#pf8726d9a68)" style="fill: #9467bd"/>
   </g>
   <g id="patch_8">
    <path d="M 158.219436 317.000412 
Q 154.867621 318.700206 151.262557 319.553984 
Q 147.657494 320.4 143.814079 320.4 
Q 135.129153 320.4 130.05674 315.339425 
Q 124.984326 310.278851 124.984326 301.624647 
Q 124.984326 292.869543 130.146121 287.847776 
Q 135.315365 282.82601 144.305678 282.82601 
Q 147.769221 282.82601 150.942273 283.509032 
Q 154.122773 284.184293 156.938297 285.519291 
L 156.938297 293.009252 
Q 154.033391 291.293934 151.158278 290.447918 
Q 148.283166 289.59414 145.393156 289.59414 
Q 140.045149 289.59414 137.147691 292.71431 
Q 134.250233 295.826719 134.250233 301.624647 
Q 134.250233 307.368244 137.043412 310.503938 
Q 139.836592 313.63187 144.976042 313.63187 
Q 146.376355 313.63187 147.57556 313.453352 
Q 148.774765 313.267074 149.728171 312.878993 
L 149.728171 305.846967 
L 144.253539 305.846967 
L 144.253539 299.583342 
L 158.219436 299.583342 
L 158.219436 317.000412 
z
" clip-path="url(#pf8726d9a68)" style="fill: #8c564b"/>
   </g>
   <g id="patch_9">
    <path d="M 124.984326 170.104039 
L 133.206465 170.104039 
L 141.612074 197.837606 
L 150.004092 170.104039 
L 158.219436 170.104039 
L 146.477406 207.678029 
L 136.726356 207.678029 
L 124.984326 170.104039 
z
" clip-path="url(#pf8726d9a68)" style="fill: #f7b6d2"/>
   </g>
   <g id="patch_10">
    <path d="M 155.448339 209.470963 
L 155.448339 217.139441 
Q 151.982211 215.804443 148.678558 215.129182 
Q 145.383932 214.44616 142.45036 214.44616 
Q 138.559993 214.44616 136.691533 215.369792 
Q 134.8321 216.285663 134.8321 218.226067 
Q 134.8321 219.685251 136.086766 220.500221 
Q 137.341432 221.307429 140.645085 221.889551 
L 145.266589 222.688997 
Q 152.289108 223.907571 155.249759 226.383527 
Q 158.219436 228.851722 158.219436 233.415553 
Q 158.219436 239.39976 154.085356 242.32589 
Q 149.951277 245.252019 141.457459 245.252019 
Q 137.458775 245.252019 133.423986 244.592282 
Q 129.389197 243.940306 125.354407 242.651878 
L 125.354407 234.773836 
Q 129.389197 236.613339 133.153195 237.552495 
Q 136.917193 238.483889 140.419426 238.483889 
Q 143.975817 238.483889 145.862329 237.467117 
Q 147.748842 236.442584 147.748842 234.548749 
Q 147.748842 232.856716 146.467097 231.933084 
Q 145.185351 231.009451 141.349142 230.279859 
L 137.142852 229.480413 
Q 130.82439 228.31617 127.899845 225.770359 
Q 124.984326 223.224549 124.984326 218.90909 
Q 124.984326 213.499242 129.046194 210.588636 
Q 133.108063 207.678029 140.726323 207.678029 
Q 144.201477 207.678029 147.866185 208.128203 
Q 151.530892 208.578377 155.448339 209.470963 
z
" clip-path="url(#pf8726d9a68)" style="fill: #c5b0d5"/>
   </g>
   <g id="patch_11">
    <path d="M 148.006316 163.259227 
L 135.224627 163.259227 
L 133.206465 170.104039 
L 124.984326 170.104039 
L 136.726356 132.530048 
L 146.477406 132.530048 
L 158.219436 170.104039 
L 150.004092 170.104039 
L 148.006316 163.259227 
z
M 137.263174 156.285572 
L 145.947383 156.285572 
L 141.612074 141.339724 
L 137.263174 156.285572 
z
" clip-path="url(#pf8726d9a68)" style="fill: #1f77b4"/>
   </g>
   <g id="patch_12">
    <path d="M 169.076132 239.015993 
L 169.076132 266.527305 
L 172.339078 266.527305 
Q 177.91864 266.527305 180.863619 262.99055 
Q 183.816168 259.453796 183.816168 252.718501 
Q 183.816168 246.021859 180.87876 242.523758 
Q 177.948922 239.015993 172.339078 239.015993 
L 169.076132 239.015993 
z
M 159.968652 230.222423 
L 169.568224 230.222423 
Q 177.615814 230.222423 181.552547 231.691239 
Q 185.48928 233.150392 188.305558 236.658157 
Q 190.788728 239.711748 191.992459 243.702676 
Q 193.203762 247.683941 193.203762 252.718501 
Q 193.203762 257.830368 191.992459 261.830959 
Q 190.788728 265.83155 188.305558 268.875478 
Q 185.466568 272.383243 181.491982 273.852059 
Q 177.517396 275.311212 169.568224 275.311212 
L 159.968652 275.311212 
L 159.968652 230.222423 
z
" clip-path="url(#pf8726d9a68)" style="fill: #2ca02c"/>
   </g>
   <g id="patch_13">
    <path d="M 159.968652 94.956058 
L 169.531397 94.956058 
L 169.531397 129.318624 
L 183.641017 129.318624 
L 183.641017 94.956058 
L 193.203762 94.956058 
L 193.203762 185.133635 
L 183.641017 185.133635 
L 183.641017 146.905764 
L 169.531397 146.905764 
L 169.531397 185.133635 
L 159.968652 185.133635 
L 159.968652 94.956058 
z
" clip-path="url(#pf8726d9a68)" style="fill: #e377c2"/>
   </g>
   <g id="patch_14">
    <path d="M 159.968652 185.133635 
L 168.190791 185.133635 
L 176.5964 218.413915 
L 184.988418 185.133635 
L 193.203762 185.133635 
L 181.461732 230.222423 
L 171.710682 230.222423 
L 159.968652 185.133635 
z
" clip-path="url(#pf8726d9a68)" style="fill: #f7b6d2"/>
   </g>
   <g id="patch_15">
    <path d="M 159.968652 275.311212 
L 169.772689 275.311212 
L 176.5734 299.440381 
L 183.418936 275.311212 
L 193.203762 275.311212 
L 193.203762 320.4 
L 185.922775 320.4 
L 185.922775 287.419281 
L 179.038817 311.732052 
L 174.152808 311.732052 
L 167.26885 287.419281 
L 167.26885 320.4 
L 159.968652 320.4 
L 159.968652 275.311212 
z
" clip-path="url(#pf8726d9a68)" style="fill: #9edae5"/>
   </g>
   <g id="patch_16">
    <path d="M 194.952978 132.530048 
L 207.013864 132.530048 
L 207.013864 162.784117 
L 228.188088 162.784117 
L 228.188088 170.104039 
L 194.952978 170.104039 
L 194.952978 132.530048 
z
" clip-path="url(#pf8726d9a68)" style="fill: #17becf"/>
   </g>
   <g id="patch_17">
    <path d="M 194.952978 207.678029 
L 227.496316 207.678029 
L 227.496316 215.006004 
L 207.013864 215.006004 
L 207.013864 221.995765 
L 226.28321 221.995765 
L 226.28321 229.32374 
L 207.013864 229.32374 
L 207.013864 237.932097 
L 228.188088 237.932097 
L 228.188088 245.252019 
L 194.952978 245.252019 
L 194.952978 207.678029 
z
" clip-path="url(#pf8726d9a68)" style="fill: #d62728"/>
   </g>
   <g id="patch_18">
    <path d="M 194.952978 170.104039 
L 203.711321 170.104039 
L 203.711321 183.81782 
L 216.335567 170.104039 
L 226.506311 170.104039 
L 210.147211 187.900549 
L 228.188088 207.678029 
L 217.223778 207.678029 
L 203.711321 192.87713 
L 203.711321 207.678029 
L 194.952978 207.678029 
L 194.952978 170.104039 
z
" clip-path="url(#pf8726d9a68)" style="fill: #bcbd22"/>
   </g>
   <g id="patch_19">
    <path d="M 194.952978 245.252019 
L 212.228311 245.252019 
Q 219.939895 245.252019 224.059664 248.440896 
Q 228.188088 251.621721 228.188088 257.508259 
Q 228.188088 263.427008 224.059664 266.607832 
Q 219.939895 269.788656 212.228311 269.788656 
L 205.364915 269.788656 
L 205.364915 282.82601 
L 194.952978 282.82601 
L 194.952978 245.252019 
z
M 205.364915 252.273991 
L 205.364915 262.766685 
L 211.120474 262.766685 
Q 214.149716 262.766685 215.802816 261.397722 
Q 217.455917 260.02876 217.455917 257.508259 
Q 217.455917 254.99581 215.802816 253.634901 
Q 214.149716 252.273991 211.120474 252.273991 
L 205.364915 252.273991 
z
" clip-path="url(#pf8726d9a68)" style="fill: #ffbb78"/>
   </g>
   <g id="patch_20">
    <path d="M 194.952978 282.82601 
L 204.757015 282.82601 
L 211.557726 302.933651 
L 218.403262 282.82601 
L 228.188088 282.82601 
L 228.188088 320.4 
L 220.907101 320.4 
L 220.907101 292.916068 
L 214.023143 313.17671 
L 209.137134 313.17671 
L 202.253176 292.916068 
L 202.253176 320.4 
L 194.952978 320.4 
L 194.952978 282.82601 
z
" clip-path="url(#pf8726d9a68)" style="fill: #9edae5"/>
   </g>
   <g id="patch_21">
    <path d="M 239.044784 193.927205 
L 239.044784 221.438517 
L 242.30773 221.438517 
Q 247.887292 221.438517 250.832271 217.901762 
Q 253.78482 214.365008 253.78482 207.629713 
Q 253.78482 200.933071 250.847412 197.43497 
Q 247.917574 193.927205 242.30773 193.927205 
L 239.044784 193.927205 
z
M 229.937304 185.133635 
L 239.536876 185.133635 
Q 247.584466 185.133635 251.521199 186.602451 
Q 255.457932 188.061604 258.27421 191.569369 
Q 260.75738 194.62296 261.961111 198.613888 
Q 263.172414 202.595152 263.172414 207.629713 
Q 263.172414 212.741579 261.961111 216.74217 
Q 260.75738 220.742762 258.27421 223.78669 
Q 255.43522 227.294454 251.460634 228.76327 
Q 247.486048 230.222423 239.536876 230.222423 
L 229.937304 230.222423 
L 229.937304 185.133635 
z
" clip-path="url(#pf8726d9a68)" style="fill: #2ca02c"/>
   </g>
   <g id="patch_22">
    <path d="M 230.28319 230.222423 
L 262.826528 230.222423 
L 262.826528 239.015993 
L 242.344076 239.015993 
L 242.344076 247.403706 
L 261.613421 247.403706 
L 261.613421 256.197276 
L 242.344076 256.197276 
L 242.344076 275.311212 
L 230.28319 275.311212 
L 230.28319 230.222423 
z
" clip-path="url(#pf8726d9a68)" style="fill: #9467bd"/>
   </g>
   <g id="patch_23">
    <path d="M 240.524416 275.311212 
L 252.585302 275.311212 
L 252.585302 320.4 
L 240.524416 320.4 
L 240.524416 275.311212 
z
" clip-path="url(#pf8726d9a68)" style="fill: #7f7f7f"/>
   </g>
   <g id="patch_24">
    <path d="M 243.4223 134.942643 
Q 246.404938 134.942643 247.698993 132.236929 
Q 248.993047 129.511889 248.993047 123.288747 
Q 248.993047 117.123585 247.698993 114.475851 
Q 246.404938 111.80879 243.4223 111.80879 
L 239.429668 111.80879 
L 239.429668 134.942643 
L 243.4223 134.942643 
z
M 239.429668 151.002988 
L 239.429668 185.133635 
L 229.937304 185.133635 
L 229.937304 94.956058 
L 244.432294 94.956058 
Q 251.707406 94.956058 255.092463 100.947282 
Q 258.485411 106.919179 258.485411 119.848625 
Q 258.485411 128.777481 256.717922 134.51746 
Q 254.958323 140.257438 251.407564 142.982479 
Q 253.356536 144.064764 254.895199 147.910743 
Q 256.441752 151.737396 258.019867 159.525986 
L 263.172414 185.133635 
L 253.064585 185.133635 
L 248.574847 162.73419 
Q 247.217667 155.969905 245.821035 153.49611 
Q 244.432294 151.002988 242.112464 151.002988 
L 239.429668 151.002988 
z
" clip-path="url(#pf8726d9a68)" style="fill: #ff9896"/>
   </g>
   <g id="patch_25">
    <path d="M 264.92163 94.956058 
L 276.982516 94.956058 
L 276.982516 167.565822 
L 298.15674 167.565822 
L 298.15674 185.133635 
L 264.92163 185.133635 
L 264.92163 94.956058 
z
" clip-path="url(#pf8726d9a68)" style="fill: #17becf"/>
   </g>
   <g id="patch_26">
    <path d="M 274.02911 193.927205 
L 274.02911 221.438517 
L 277.292056 221.438517 
Q 282.871618 221.438517 285.816597 217.901762 
Q 288.769146 214.365008 288.769146 207.629713 
Q 288.769146 200.933071 285.831738 197.43497 
Q 282.9019 193.927205 277.292056 193.927205 
L 274.02911 193.927205 
z
M 264.92163 185.133635 
L 274.521202 185.133635 
Q 282.568792 185.133635 286.505525 186.602451 
Q 290.442258 188.061604 293.258536 191.569369 
Q 295.741706 194.62296 296.945437 198.613888 
Q 298.15674 202.595152 298.15674 207.629713 
Q 298.15674 212.741579 296.945437 216.74217 
Q 295.741706 220.742762 293.258536 223.78669 
Q 290.419546 227.294454 286.44496 228.76327 
Q 282.470374 230.222423 274.521202 230.222423 
L 264.92163 230.222423 
L 264.92163 185.133635 
z
" clip-path="url(#pf8726d9a68)" style="fill: #2ca02c"/>
   </g>
   <g id="patch_27">
    <path d="M 264.92163 230.222423 
L 297.464968 230.222423 
L 297.464968 239.015993 
L 276.982516 239.015993 
L 276.982516 247.403706 
L 296.251862 247.403706 
L 296.251862 256.197276 
L 276.982516 256.197276 
L 276.982516 266.527305 
L 298.15674 266.527305 
L 298.15674 275.311212 
L 264.92163 275.311212 
L 264.92163 230.222423 
z
" clip-path="url(#pf8726d9a68)" style="fill: #d62728"/>
   </g>
   <g id="patch_28">
    <path d="M 264.92163 275.311212 
L 274.484375 275.311212 
L 274.484375 292.492494 
L 288.593995 292.492494 
L 288.593995 275.311212 
L 298.15674 275.311212 
L 298.15674 320.4 
L 288.593995 320.4 
L 288.593995 301.286064 
L 274.484375 301.286064 
L 274.484375 320.4 
L 264.92163 320.4 
L 264.92163 275.311212 
z
" clip-path="url(#pf8726d9a68)" style="fill: #e377c2"/>
   </g>
   <g id="patch_29">
    <path d="M 309.013436 75.637034 
L 309.013436 177.118611 
L 312.276382 177.118611 
Q 317.855944 177.118611 320.800923 164.072508 
Q 323.753472 151.026404 323.753472 126.181775 
Q 323.753472 101.479726 320.816064 88.576202 
Q 317.886226 75.637034 312.276382 75.637034 
L 309.013436 75.637034 
z
M 299.905956 43.2 
L 309.505528 43.2 
Q 317.553118 43.2 321.489851 48.618054 
Q 325.426584 54.000463 328.242862 66.939631 
Q 330.726032 78.20348 331.929763 92.924904 
Q 333.141066 107.610682 333.141066 126.181775 
Q 333.141066 145.038028 331.929763 159.795096 
Q 330.726032 174.552165 328.242862 185.780369 
Q 325.403872 198.719537 321.429286 204.137591 
Q 317.4547 209.52 309.505528 209.52 
L 299.905956 209.52 
L 299.905956 43.2 
z
" clip-path="url(#pf8726d9a68)" style="fill: #2ca02c"/>
   </g>
   <g id="patch_30">
    <path d="M 299.905956 264.96 
L 309.468701 264.96 
L 309.468701 286.085658 
L 323.578321 286.085658 
L 323.578321 264.96 
L 333.141066 264.96 
L 333.141066 320.4 
L 323.578321 320.4 
L 323.578321 296.898003 
L 309.468701 296.898003 
L 309.468701 320.4 
L 299.905956 320.4 
L 299.905956 264.96 
z
" clip-path="url(#pf8726d9a68)" style="fill: #e377c2"/>
   </g>
   <g id="patch_31">
    <path d="M 299.905956 209.52 
L 333.141066 209.52 
L 333.141066 220.332345 
L 321.184155 220.332345 
L 321.184155 264.96 
L 311.886054 264.96 
L 311.886054 220.332345 
L 299.905956 220.332345 
L 299.905956 209.52 
z
" clip-path="url(#pf8726d9a68)" style="fill: #c49c94"/>
   </g>
   <g id="patch_32">
    <path d="M 368.125392 272.079274 
Q 365.345332 273.681272 362.339184 274.491585 
Q 359.333035 275.311212 356.058928 275.311212 
Q 346.295225 275.311212 340.592754 269.238522 
Q 334.890282 263.165833 334.890282 252.780788 
Q 334.890282 242.358488 340.592754 236.295113 
Q 346.295225 230.222423 356.058928 230.222423 
Q 359.333035 230.222423 362.339184 231.04205 
Q 365.345332 231.852363 368.125392 233.454361 
L 368.125392 242.442314 
Q 365.320211 240.318735 362.598767 239.331458 
Q 359.877324 238.34418 356.871175 238.34418 
Q 351.478529 238.34418 348.388644 242.190837 
Q 345.307132 246.028181 345.307132 252.780788 
Q 345.307132 259.505454 348.388644 263.352111 
Q 351.478529 267.189455 356.871175 267.189455 
Q 359.877324 267.189455 362.598767 266.202177 
Q 365.320211 265.205586 368.125392 263.082007 
L 368.125392 272.079274 
z
" clip-path="url(#pf8726d9a68)" style="fill: #ff7f0e"/>
   </g>
   <g id="patch_33">
    <path d="M 368.125392 176.974623 
Q 364.773577 181.054129 361.168513 183.103196 
Q 357.56345 185.133635 353.720035 185.133635 
Q 345.035109 185.133635 339.962696 172.988256 
Q 334.890282 160.842877 334.890282 140.072788 
Q 334.890282 119.060537 340.052078 107.008298 
Q 345.221321 94.956058 354.211635 94.956058 
Q 357.675177 94.956058 360.848229 96.595312 
Q 364.028729 98.215938 366.844254 101.419933 
L 366.844254 119.395839 
Q 363.939347 115.279077 361.064235 113.248638 
Q 358.189122 111.199571 355.299112 111.199571 
Q 349.951105 111.199571 347.053647 118.68798 
Q 344.156189 126.15776 344.156189 140.072788 
Q 344.156189 153.857421 346.949368 161.383085 
Q 349.742548 168.890122 354.881998 168.890122 
Q 356.282312 168.890122 357.481517 168.461681 
Q 358.680721 168.014611 359.634127 167.083217 
L 359.634127 150.206356 
L 354.159495 150.206356 
L 354.159495 135.173655 
L 368.125392 135.173655 
L 368.125392 176.974623 
z
" clip-path="url(#pf8726d9a68)" style="fill: #8c564b"/>
   </g>
   <g id="patch_34">
    <path d="M 334.890282 185.133635 
L 343.112421 185.133635 
L 351.51803 218.413915 
L 359.910048 185.133635 
L 368.125392 185.133635 
L 356.383362 230.222423 
L 346.632312 230.222423 
L 334.890282 185.133635 
z
" clip-path="url(#pf8726d9a68)" style="fill: #f7b6d2"/>
   </g>
   <g id="patch_35">
    <path d="M 334.890282 275.311212 
L 345.565899 275.311212 
L 359.05549 306.233655 
L 359.05549 275.311212 
L 368.125392 275.311212 
L 368.125392 320.4 
L 357.441826 320.4 
L 343.952235 289.477556 
L 343.952235 320.4 
L 334.890282 320.4 
L 334.890282 275.311212 
z
" clip-path="url(#pf8726d9a68)" style="fill: #aec7e8"/>
   </g>
   <g id="patch_36">
    <path d="M 403.109718 204.984748 
Q 400.329658 206.319746 397.32351 206.995007 
Q 394.317361 207.678029 391.043255 207.678029 
Q 381.279551 207.678029 375.57708 202.617454 
Q 369.874608 197.55688 369.874608 188.902676 
Q 369.874608 180.217426 375.57708 175.164613 
Q 381.279551 170.104039 391.043255 170.104039 
Q 394.317361 170.104039 397.32351 170.787061 
Q 400.329658 171.462322 403.109718 172.79732 
L 403.109718 180.287281 
Q 400.304537 178.517632 397.583093 177.694901 
Q 394.86165 176.872169 391.855501 176.872169 
Q 386.462855 176.872169 383.37297 180.077717 
Q 380.291458 183.275504 380.291458 188.902676 
Q 380.291458 194.506564 383.37297 197.712112 
Q 386.462855 200.909899 391.855501 200.909899 
Q 394.86165 200.909899 397.583093 200.087167 
Q 400.304537 199.256674 403.109718 197.487025 
L 403.109718 204.984748 
z
" clip-path="url(#pf8726d9a68)" style="fill: #ff7f0e"/>
   </g>
   <g id="patch_37">
    <path d="M 403.109718 279.426421 
Q 399.757903 281.126215 396.152839 281.979993 
Q 392.547776 282.82601 388.704361 282.82601 
Q 380.019435 282.82601 374.947022 277.765435 
Q 369.874608 272.70486 369.874608 264.050657 
Q 369.874608 255.295552 375.036404 250.273786 
Q 380.205647 245.252019 389.195961 245.252019 
Q 392.659503 245.252019 395.832555 245.935042 
Q 399.013055 246.610302 401.82858 247.945301 
L 401.82858 255.435262 
Q 398.923673 253.719944 396.048561 252.873928 
Q 393.173448 252.02015 390.283438 252.02015 
Q 384.935431 252.02015 382.037973 255.14032 
Q 379.140515 258.252729 379.140515 264.050657 
Q 379.140515 269.794254 381.933694 272.929947 
Q 384.726874 276.057879 389.866324 276.057879 
Q 391.266638 276.057879 392.465843 275.879362 
Q 393.665048 275.693083 394.618453 275.305002 
L 394.618453 268.272977 
L 389.143821 268.272977 
L 389.143821 262.009352 
L 403.109718 262.009352 
L 403.109718 279.426421 
z
" clip-path="url(#pf8726d9a68)" style="fill: #8c564b"/>
   </g>
   <g id="patch_38">
    <path d="M 369.874608 207.678029 
L 403.109718 207.678029 
L 403.109718 215.006004 
L 391.152807 215.006004 
L 391.152807 245.252019 
L 381.854706 245.252019 
L 381.854706 215.006004 
L 369.874608 215.006004 
L 369.874608 207.678029 
z
" clip-path="url(#pf8726d9a68)" style="fill: #c49c94"/>
   </g>
   <g id="patch_39">
    <path d="M 369.874608 282.82601 
L 380.550225 282.82601 
L 394.039816 308.594713 
L 394.039816 282.82601 
L 403.109718 282.82601 
L 403.109718 320.4 
L 392.426152 320.4 
L 378.936561 294.631297 
L 378.936561 320.4 
L 369.874608 320.4 
L 369.874608 282.82601 
z
" clip-path="url(#pf8726d9a68)" style="fill: #aec7e8"/>
   </g>
   <g id="patch_40">
    <path d="M 392.896598 163.259227 
L 380.114909 163.259227 
L 378.096747 170.104039 
L 369.874608 170.104039 
L 381.616638 132.530048 
L 391.367688 132.530048 
L 403.109718 170.104039 
L 394.894374 170.104039 
L 392.896598 163.259227 
z
M 382.153456 156.285572 
L 390.837665 156.285572 
L 386.502356 141.339724 
L 382.153456 156.285572 
z
" clip-path="url(#pf8726d9a68)" style="fill: #1f77b4"/>
   </g>
   <g id="patch_41">
    <path d="M 404.858934 207.678029 
L 422.134267 207.678029 
Q 429.845851 207.678029 433.96562 210.866906 
Q 438.094044 214.04773 438.094044 219.934269 
Q 438.094044 225.853018 433.96562 229.033842 
Q 429.845851 232.214666 422.134267 232.214666 
L 415.270871 232.214666 
L 415.270871 245.252019 
L 404.858934 245.252019 
L 404.858934 207.678029 
z
M 415.270871 214.700001 
L 415.270871 225.192695 
L 421.02643 225.192695 
Q 424.055672 225.192695 425.708773 223.823732 
Q 427.361873 222.45477 427.361873 219.934269 
Q 427.361873 217.42182 425.708773 216.06091 
Q 424.055672 214.700001 421.02643 214.700001 
L 415.270871 214.700001 
z
" clip-path="url(#pf8726d9a68)" style="fill: #ffbb78"/>
   </g>
   <g id="patch_42">
    <path d="M 418.34393 186.765116 
Q 421.326568 186.765116 422.620623 185.637735 
Q 423.914677 184.502302 423.914677 181.909326 
Q 423.914677 179.340508 422.620623 178.237286 
Q 421.326568 177.12601 418.34393 177.12601 
L 414.351298 177.12601 
L 414.351298 186.765116 
L 418.34393 186.765116 
z
M 414.351298 193.456926 
L 414.351298 207.678029 
L 404.858934 207.678029 
L 404.858934 170.104039 
L 419.353924 170.104039 
Q 426.629036 170.104039 430.014093 172.600382 
Q 433.407041 175.088672 433.407041 180.475942 
Q 433.407041 184.196298 431.639552 186.587956 
Q 429.879953 188.979614 426.329194 190.115047 
Q 428.278166 190.566 429.816829 192.168491 
Q 431.363382 193.762929 432.941497 197.008175 
L 438.094044 207.678029 
L 427.986215 207.678029 
L 423.496477 198.344927 
Q 422.139297 195.526475 420.742665 194.495727 
Q 419.353924 193.456926 417.034094 193.456926 
L 414.351298 193.456926 
z
" clip-path="url(#pf8726d9a68)" style="fill: #ff9896"/>
   </g>
   <g id="patch_43">
    <path d="M 404.858934 282.82601 
L 410.605797 282.82601 
L 414.623118 310.132782 
L 418.610534 282.82601 
L 424.387302 282.82601 
L 428.374718 310.132782 
L 432.397024 282.82601 
L 438.094044 282.82601 
L 432.611347 320.4 
L 425.698165 320.4 
L 421.476489 291.837003 
L 417.304655 320.4 
L 410.386489 320.4 
L 404.858934 282.82601 
z
" clip-path="url(#pf8726d9a68)" style="fill: #c7c7c7"/>
   </g>
   <g id="patch_44">
    <path d="M 404.858934 245.252019 
L 414.662971 245.252019 
L 421.463682 265.359661 
L 428.309218 245.252019 
L 438.094044 245.252019 
L 438.094044 282.82601 
L 430.813057 282.82601 
L 430.813057 255.342077 
L 423.929099 275.60272 
L 419.04309 275.60272 
L 412.159132 255.342077 
L 412.159132 282.82601 
L 404.858934 282.82601 
L 404.858934 245.252019 
z
" clip-path="url(#pf8726d9a68)" style="fill: #9edae5"/>
   </g>
   <g id="patch_45">
    <path d="M 404.858934 132.530048 
L 414.047465 132.530048 
L 421.469507 145.921721 
L 428.884567 132.530048 
L 438.094044 132.530048 
L 425.679753 154.272392 
L 425.679753 170.104039 
L 417.280207 170.104039 
L 417.280207 154.272392 
L 404.858934 132.530048 
z
" clip-path="url(#pf8726d9a68)" style="fill: #dbdb8d"/>
   </g>
   <g id="patch_46">
    <path d="M 439.84326 207.678029 
L 449.406005 207.678029 
L 449.406005 221.995765 
L 463.515625 221.995765 
L 463.515625 207.678029 
L 473.07837 207.678029 
L 473.07837 245.252019 
L 463.515625 245.252019 
L 463.515625 229.32374 
L 449.406005 229.32374 
L 449.406005 245.252019 
L 439.84326 245.252019 
L 439.84326 207.678029 
z
" clip-path="url(#pf8726d9a68)" style="fill: #e377c2"/>
   </g>
   <g id="patch_47">
    <path d="M 439.84326 282.82601 
L 448.601603 282.82601 
L 448.601603 296.539791 
L 461.225849 282.82601 
L 471.396593 282.82601 
L 455.037493 300.62252 
L 473.07837 320.4 
L 462.11406 320.4 
L 448.601603 305.599101 
L 448.601603 320.4 
L 439.84326 320.4 
L 439.84326 282.82601 
z
" clip-path="url(#pf8726d9a68)" style="fill: #bcbd22"/>
   </g>
   <g id="patch_48">
    <path d="M 439.84326 132.530048 
L 473.07837 132.530048 
L 473.07837 139.858023 
L 461.12146 139.858023 
L 461.12146 170.104039 
L 451.823358 170.104039 
L 451.823358 139.858023 
L 439.84326 139.858023 
L 439.84326 132.530048 
z
" clip-path="url(#pf8726d9a68)" style="fill: #c49c94"/>
   </g>
   <g id="patch_49">
    <path d="M 453.328256 186.765116 
Q 456.310894 186.765116 457.604949 185.637735 
Q 458.899003 184.502302 458.899003 181.909326 
Q 458.899003 179.340508 457.604949 178.237286 
Q 456.310894 177.12601 453.328256 177.12601 
L 449.335624 177.12601 
L 449.335624 186.765116 
L 453.328256 186.765116 
z
M 449.335624 193.456926 
L 449.335624 207.678029 
L 439.84326 207.678029 
L 439.84326 170.104039 
L 454.33825 170.104039 
Q 461.613362 170.104039 464.998419 172.600382 
Q 468.391367 175.088672 468.391367 180.475942 
Q 468.391367 184.196298 466.623878 186.587956 
Q 464.864279 188.979614 461.31352 190.115047 
Q 463.262492 190.566 464.801155 192.168491 
Q 466.347708 193.762929 467.925823 197.008175 
L 473.07837 207.678029 
L 462.970541 207.678029 
L 458.480803 198.344927 
Q 457.123624 195.526475 455.726991 194.495727 
Q 454.33825 193.456926 452.01842 193.456926 
L 449.335624 193.456926 
z
" clip-path="url(#pf8726d9a68)" style="fill: #ff9896"/>
   </g>
   <g id="patch_50">
    <path d="M 439.84326 245.252019 
L 445.590123 245.252019 
L 449.607444 272.558792 
L 453.59486 245.252019 
L 459.371628 245.252019 
L 463.359044 272.558792 
L 467.38135 245.252019 
L 473.07837 245.252019 
L 467.595673 282.82601 
L 460.682491 282.82601 
L 456.460815 254.263013 
L 452.288981 282.82601 
L 445.370815 282.82601 
L 439.84326 245.252019 
z
" clip-path="url(#pf8726d9a68)" style="fill: #c7c7c7"/>
   </g>
   <g id="patch_51">
    <path d="M 508.062696 272.079274 
Q 505.282636 273.681272 502.276488 274.491585 
Q 499.270339 275.311212 495.996233 275.311212 
Q 486.232529 275.311212 480.530058 269.238522 
Q 474.827586 263.165833 474.827586 252.780788 
Q 474.827586 242.358488 480.530058 236.295113 
Q 486.232529 230.222423 495.996233 230.222423 
Q 499.270339 230.222423 502.276488 231.04205 
Q 505.282636 231.852363 508.062696 233.454361 
L 508.062696 242.442314 
Q 505.257515 240.318735 502.536071 239.331458 
Q 499.814628 238.34418 496.808479 238.34418 
Q 491.415833 238.34418 488.325948 242.190837 
Q 485.244436 246.028181 485.244436 252.780788 
Q 485.244436 259.505454 488.325948 263.352111 
Q 491.415833 267.189455 496.808479 267.189455 
Q 499.814628 267.189455 502.536071 266.202177 
Q 505.257515 265.205586 508.062696 263.082007 
L 508.062696 272.079274 
z
" clip-path="url(#pf8726d9a68)" style="fill: #ff7f0e"/>
   </g>
   <g id="patch_52">
    <path d="M 474.827586 275.311212 
L 507.370924 275.311212 
L 507.370924 284.104782 
L 486.888472 284.104782 
L 486.888472 292.492494 
L 506.157818 292.492494 
L 506.157818 301.286064 
L 486.888472 301.286064 
L 486.888472 311.616093 
L 508.062696 311.616093 
L 508.062696 320.4 
L 474.827586 320.4 
L 474.827586 275.311212 
z
" clip-path="url(#pf8726d9a68)" style="fill: #d62728"/>
   </g>
   <g id="patch_53">
    <path d="M 474.827586 185.133635 
L 483.049725 185.133635 
L 491.455334 218.413915 
L 499.847352 185.133635 
L 508.062696 185.133635 
L 496.320666 230.222423 
L 486.569616 230.222423 
L 474.827586 185.133635 
z
" clip-path="url(#pf8726d9a68)" style="fill: #f7b6d2"/>
   </g>
   <g id="patch_54">
    <path d="M 488.312582 134.942643 
Q 491.29522 134.942643 492.589275 132.236929 
Q 493.883329 129.511889 493.883329 123.288747 
Q 493.883329 117.123585 492.589275 114.475851 
Q 491.29522 111.80879 488.312582 111.80879 
L 484.31995 111.80879 
L 484.31995 134.942643 
L 488.312582 134.942643 
z
M 484.31995 151.002988 
L 484.31995 185.133635 
L 474.827586 185.133635 
L 474.827586 94.956058 
L 489.322576 94.956058 
Q 496.597688 94.956058 499.982745 100.947282 
Q 503.375693 106.919179 503.375693 119.848625 
Q 503.375693 128.777481 501.608204 134.51746 
Q 499.848605 140.257438 496.297846 142.982479 
Q 498.246818 144.064764 499.785481 147.910743 
Q 501.332034 151.737396 502.910149 159.525986 
L 508.062696 185.133635 
L 497.954867 185.133635 
L 493.465129 162.73419 
Q 492.10795 155.969905 490.711317 153.49611 
Q 489.322576 151.002988 487.002746 151.002988 
L 484.31995 151.002988 
z
" clip-path="url(#pf8726d9a68)" style="fill: #ff9896"/>
   </g>
   <g id="patch_55">
    <path d="M 509.811912 245.252019 
L 519.374657 245.252019 
L 519.374657 259.569755 
L 533.484277 259.569755 
L 533.484277 245.252019 
L 543.047022 245.252019 
L 543.047022 282.82601 
L 533.484277 282.82601 
L 533.484277 266.89773 
L 519.374657 266.89773 
L 519.374657 282.82601 
L 509.811912 282.82601 
L 509.811912 245.252019 
z
" clip-path="url(#pf8726d9a68)" style="fill: #e377c2"/>
   </g>
   <g id="patch_56">
    <path d="M 509.811912 282.82601 
L 518.570255 282.82601 
L 518.570255 296.539791 
L 531.194501 282.82601 
L 541.365245 282.82601 
L 525.006145 300.62252 
L 543.047022 320.4 
L 532.082712 320.4 
L 518.570255 305.599101 
L 518.570255 320.4 
L 509.811912 320.4 
L 509.811912 282.82601 
z
" clip-path="url(#pf8726d9a68)" style="fill: #bcbd22"/>
   </g>
   <g id="patch_57">
    <path d="M 509.811912 170.104039 
L 527.087245 170.104039 
Q 534.798829 170.104039 538.918598 173.292916 
Q 543.047022 176.47374 543.047022 182.360278 
Q 543.047022 188.279027 538.918598 191.459852 
Q 534.798829 194.640676 527.087245 194.640676 
L 520.223849 194.640676 
L 520.223849 207.678029 
L 509.811912 207.678029 
L 509.811912 170.104039 
z
M 520.223849 177.12601 
L 520.223849 187.618704 
L 525.979408 187.618704 
Q 529.00865 187.618704 530.661751 186.249742 
Q 532.314851 184.880779 532.314851 182.360278 
Q 532.314851 179.84783 530.661751 178.48692 
Q 529.00865 177.12601 525.979408 177.12601 
L 520.223849 177.12601 
z
" clip-path="url(#pf8726d9a68)" style="fill: #ffbb78"/>
   </g>
   <g id="patch_58">
    <path d="M 523.296908 149.191126 
Q 526.279546 149.191126 527.573601 148.063745 
Q 528.867655 146.928311 528.867655 144.335336 
Q 528.867655 141.766518 527.573601 140.663295 
Q 526.279546 139.55202 523.296908 139.55202 
L 519.304276 139.55202 
L 519.304276 149.191126 
L 523.296908 149.191126 
z
M 519.304276 155.882936 
L 519.304276 170.104039 
L 509.811912 170.104039 
L 509.811912 132.530048 
L 524.306902 132.530048 
Q 531.582014 132.530048 534.967071 135.026392 
Q 538.360019 137.514682 538.360019 142.901951 
Q 538.360019 146.622308 536.59253 149.013966 
Q 534.832931 151.405624 531.282172 152.541057 
Q 533.231144 152.992009 534.769807 154.594501 
Q 536.31636 156.188939 537.894475 159.434185 
L 543.047022 170.104039 
L 532.939193 170.104039 
L 528.449455 160.770937 
Q 527.092276 157.952485 525.695643 156.921737 
Q 524.306902 155.882936 521.987072 155.882936 
L 519.304276 155.882936 
z
" clip-path="url(#pf8726d9a68)" style="fill: #ff9896"/>
   </g>
   <g id="patch_59">
    <path d="M 509.811912 207.678029 
L 519.615949 207.678029 
L 526.41666 227.78567 
L 533.262196 207.678029 
L 543.047022 207.678029 
L 543.047022 245.252019 
L 535.766035 245.252019 
L 535.766035 217.768087 
L 528.882077 238.02873 
L 523.996068 238.02873 
L 517.11211 217.768087 
L 517.11211 245.252019 
L 509.811912 245.252019 
L 509.811912 207.678029 
z
" clip-path="url(#pf8726d9a68)" style="fill: #9edae5"/>
   </g>
   <g id="patch_60">
    <path d="M 578.031348 167.410757 
Q 575.251288 168.745756 572.24514 169.421016 
Q 569.238991 170.104039 565.964885 170.104039 
Q 556.201181 170.104039 550.49871 165.043464 
Q 544.796238 159.98289 544.796238 151.328686 
Q 544.796238 142.643436 550.49871 137.590623 
Q 556.201181 132.530048 565.964885 132.530048 
Q 569.238991 132.530048 572.24514 133.213071 
Q 575.251288 133.888332 578.031348 135.22333 
L 578.031348 142.713291 
Q 575.226167 140.943642 572.504724 140.12091 
Q 569.78328 139.298179 566.777131 139.298179 
Q 561.384485 139.298179 558.2946 142.503727 
Q 555.213088 145.701513 555.213088 151.328686 
Q 555.213088 156.932574 558.2946 160.138122 
Q 561.384485 163.335908 566.777131 163.335908 
Q 569.78328 163.335908 572.504724 162.513177 
Q 575.226167 161.682684 578.031348 159.913035 
L 578.031348 167.410757 
z
" clip-path="url(#pf8726d9a68)" style="fill: #ff7f0e"/>
   </g>
   <g id="patch_61">
    <path d="M 544.796238 207.678029 
L 577.339576 207.678029 
L 577.339576 215.006004 
L 556.857124 215.006004 
L 556.857124 221.995765 
L 576.12647 221.995765 
L 576.12647 229.32374 
L 556.857124 229.32374 
L 556.857124 237.932097 
L 578.031348 237.932097 
L 578.031348 245.252019 
L 544.796238 245.252019 
L 544.796238 207.678029 
z
" clip-path="url(#pf8726d9a68)" style="fill: #d62728"/>
   </g>
   <g id="patch_62">
    <path d="M 555.38335 282.82601 
L 567.444236 282.82601 
L 567.444236 320.4 
L 555.38335 320.4 
L 555.38335 282.82601 
z
" clip-path="url(#pf8726d9a68)" style="fill: #7f7f7f"/>
   </g>
   <g id="patch_63">
    <path d="M 544.796238 170.104039 
L 578.031348 170.104039 
L 578.031348 177.432014 
L 566.074438 177.432014 
L 566.074438 207.678029 
L 556.776336 207.678029 
L 556.776336 177.432014 
L 544.796238 177.432014 
L 544.796238 170.104039 
z
" clip-path="url(#pf8726d9a68)" style="fill: #c49c94"/>
   </g>
   <g id="patch_64">
    <path d="M 562.300063 277.207098 
L 561.649208 277.207098 
Q 553.665858 277.207098 549.227586 272.99622 
Q 544.796238 268.778731 544.796238 261.262611 
Q 544.796238 253.759712 549.220662 249.509171 
Q 553.645086 245.252019 561.413793 245.252019 
Q 569.265588 245.252019 573.648468 249.469508 
Q 578.031348 253.680386 578.031348 261.262611 
Q 578.031348 266.465062 575.70489 270.226427 
Q 573.378433 273.987793 569.0094 275.885002 
L 575.517943 282.82601 
L 567.576136 282.82601 
L 562.300063 277.207098 
z
M 561.413793 251.016361 
Q 557.605603 251.016361 555.507637 253.700218 
Q 553.409671 256.384074 553.409671 261.262611 
Q 553.409671 266.220474 555.459169 268.858057 
Q 557.515592 271.48903 561.413793 271.48903 
Q 565.242755 271.48903 567.340721 268.805173 
Q 569.438687 266.114706 569.438687 261.262611 
Q 569.438687 256.384074 567.340721 253.700218 
Q 565.242755 251.016361 561.413793 251.016361 
z
" clip-path="url(#pf8726d9a68)" style="fill: #98df8a"/>
   </g>
   <g id="patch_65">
    <path d="M 613.015674 204.278441 
Q 609.663859 205.978235 606.058795 206.832013 
Q 602.453732 207.678029 598.610317 207.678029 
Q 589.925392 207.678029 584.852978 202.617454 
Q 579.780564 197.55688 579.780564 188.902676 
Q 579.780564 180.147572 584.94236 175.125805 
Q 590.111604 170.104039 599.101917 170.104039 
Q 602.565459 170.104039 605.738511 170.787061 
Q 608.919011 171.462322 611.734536 172.79732 
L 611.734536 180.287281 
Q 608.829629 178.571963 605.954517 177.725947 
Q 603.079404 176.872169 600.189395 176.872169 
Q 594.841387 176.872169 591.943929 179.992339 
Q 589.046471 183.104748 589.046471 188.902676 
Q 589.046471 194.646273 591.83965 197.781967 
Q 594.63283 200.909899 599.77228 200.909899 
Q 601.172594 200.909899 602.371799 200.731381 
Q 603.571004 200.545103 604.524409 200.157022 
L 604.524409 193.124996 
L 599.049777 193.124996 
L 599.049777 186.861371 
L 613.015674 186.861371 
L 613.015674 204.278441 
z
" clip-path="url(#pf8726d9a68)" style="fill: #8c564b"/>
   </g>
   <g id="patch_66">
    <path d="M 579.780564 282.82601 
L 588.538908 282.82601 
L 588.538908 296.539791 
L 601.163153 282.82601 
L 611.333897 282.82601 
L 594.974797 300.62252 
L 613.015674 320.4 
L 602.051364 320.4 
L 588.538908 305.599101 
L 588.538908 320.4 
L 579.780564 320.4 
L 579.780564 282.82601 
z
" clip-path="url(#pf8726d9a68)" style="fill: #bcbd22"/>
   </g>
   <g id="patch_67">
    <path d="M 579.780564 132.530048 
L 588.002703 132.530048 
L 596.408312 160.263615 
L 604.80033 132.530048 
L 613.015674 132.530048 
L 601.273644 170.104039 
L 591.522594 170.104039 
L 579.780564 132.530048 
z
" clip-path="url(#pf8726d9a68)" style="fill: #f7b6d2"/>
   </g>
   <g id="patch_68">
    <path d="M 579.780564 207.678029 
L 590.456181 207.678029 
L 603.945772 233.446732 
L 603.945772 207.678029 
L 613.015674 207.678029 
L 613.015674 245.252019 
L 602.332108 245.252019 
L 588.842517 219.483316 
L 588.842517 245.252019 
L 579.780564 245.252019 
L 579.780564 207.678029 
z
" clip-path="url(#pf8726d9a68)" style="fill: #aec7e8"/>
   </g>
   <g id="patch_69">
    <path d="M 579.780564 245.252019 
L 585.527427 245.252019 
L 589.544748 272.558792 
L 593.532164 245.252019 
L 599.308933 245.252019 
L 603.296348 272.558792 
L 607.318654 245.252019 
L 613.015674 245.252019 
L 607.532977 282.82601 
L 600.619795 282.82601 
L 596.398119 254.263013 
L 592.226285 282.82601 
L 585.308119 282.82601 
L 579.780564 245.252019 
z
" clip-path="url(#pf8726d9a68)" style="fill: #c7c7c7"/>
   </g>
   <g id="patch_70">
    <path d="M 623.87237 215.006004 
L 623.87237 237.932097 
L 627.135316 237.932097 
Q 632.714878 237.932097 635.659857 234.984802 
Q 638.612406 232.037506 638.612406 226.424761 
Q 638.612406 220.844226 635.674998 217.929141 
Q 632.74516 215.006004 627.135316 215.006004 
L 623.87237 215.006004 
z
M 614.76489 207.678029 
L 624.364462 207.678029 
Q 632.412052 207.678029 636.348785 208.902042 
Q 640.285518 210.118003 643.101796 213.04114 
Q 645.584966 215.5858 646.788698 218.911573 
Q 648 222.229294 648 226.424761 
Q 648 230.684649 646.788698 234.018475 
Q 645.584966 237.352301 643.101796 239.888908 
Q 640.262806 242.812045 636.28822 244.036059 
Q 632.313634 245.252019 624.364462 245.252019 
L 614.76489 245.252019 
L 614.76489 207.678029 
z
" clip-path="url(#pf8726d9a68)" style="fill: #2ca02c"/>
   </g>
   <g id="patch_71">
    <path d="M 648 279.426421 
Q 644.648185 281.126215 641.043121 281.979993 
Q 637.438058 282.82601 633.594643 282.82601 
Q 624.909718 282.82601 619.837304 277.765435 
Q 614.76489 272.70486 614.76489 264.050657 
Q 614.76489 255.295552 619.926686 250.273786 
Q 625.09593 245.252019 634.086243 245.252019 
Q 637.549785 245.252019 640.722837 245.935042 
Q 643.903337 246.610302 646.718862 247.945301 
L 646.718862 255.435262 
Q 643.813955 253.719944 640.938843 252.873928 
Q 638.06373 252.02015 635.173721 252.02015 
Q 629.825713 252.02015 626.928255 255.14032 
Q 624.030797 258.252729 624.030797 264.050657 
Q 624.030797 269.794254 626.823976 272.929947 
Q 629.617156 276.057879 634.756606 276.057879 
Q 636.15692 276.057879 637.356125 275.879362 
Q 638.55533 275.693083 639.508735 275.305002 
L 639.508735 268.272977 
L 634.034103 268.272977 
L 634.034103 262.009352 
L 648 262.009352 
L 648 279.426421 
z
" clip-path="url(#pf8726d9a68)" style="fill: #8c564b"/>
   </g>
   <g id="patch_72">
    <path d="M 614.76489 282.82601 
L 624.327635 282.82601 
L 624.327635 297.143745 
L 638.437255 297.143745 
L 638.437255 282.82601 
L 648 282.82601 
L 648 320.4 
L 638.437255 320.4 
L 638.437255 304.47172 
L 624.327635 304.47172 
L 624.327635 320.4 
L 614.76489 320.4 
L 614.76489 282.82601 
z
" clip-path="url(#pf8726d9a68)" style="fill: #e377c2"/>
   </g>
   <g id="patch_73">
    <path d="M 614.76489 132.530048 
L 623.523234 132.530048 
L 623.523234 146.24383 
L 636.147479 132.530048 
L 646.318223 132.530048 
L 629.959123 150.326559 
L 648 170.104039 
L 637.03569 170.104039 
L 623.523234 155.30314 
L 623.523234 170.104039 
L 614.76489 170.104039 
L 614.76489 132.530048 
z
" clip-path="url(#pf8726d9a68)" style="fill: #bcbd22"/>
   </g>
   <g id="patch_74">
    <path d="M 614.76489 170.104039 
L 622.987029 170.104039 
L 631.392638 197.837606 
L 639.784656 170.104039 
L 648 170.104039 
L 636.25797 207.678029 
L 626.50692 207.678029 
L 614.76489 170.104039 
z
" clip-path="url(#pf8726d9a68)" style="fill: #f7b6d2"/>
   </g>
   <g id="matplotlib.axis_1">
    <g id="xtick_1">
     <g id="line2d_2">
      <defs>
       <path id="m90d2362ca8" d="M 0 0 
L 0 3.5 
" style="stroke: #000000; stroke-width: 0.8"/>
      </defs>
      <g>
       <use xlink:href="#m90d2362ca8" x="106.617555" y="320.4" style="stroke: #000000; stroke-width: 0.8"/>
      </g>
     </g>
     <g id="text_1">
      <!-- 0 -->
      <g transform="translate(102.800055 336.518125) scale(0.12 -0.12)">
       <defs>
        <path id="DejaVuSans-30" d="M 2034 4250 
Q 1547 4250 1301 3770 
Q 1056 3291 1056 2328 
Q 1056 1369 1301 889 
Q 1547 409 2034 409 
Q 2525 409 2770 889 
Q 3016 1369 3016 2328 
Q 3016 3291 2770 3770 
Q 2525 4250 2034 4250 
z
M 2034 4750 
Q 2819 4750 3233 4129 
Q 3647 3509 3647 2328 
Q 3647 1150 3233 529 
Q 2819 -91 2034 -91 
Q 1250 -91 836 529 
Q 422 1150 422 2328 
Q 422 3509 836 4129 
Q 1250 4750 2034 4750 
z
" transform="scale(0.015625)"/>
       </defs>
       <use xlink:href="#DejaVuSans-30"/>
      </g>
     </g>
    </g>
    <g id="xtick_2">
     <g id="line2d_3">
      <g>
       <use xlink:href="#m90d2362ca8" x="141.601881" y="320.4" style="stroke: #000000; stroke-width: 0.8"/>
      </g>
     </g>
     <g id="text_2">
      <!-- 1 -->
      <g transform="translate(137.784381 336.518125) scale(0.12 -0.12)">
       <defs>
        <path id="DejaVuSans-31" d="M 794 531 
L 1825 531 
L 1825 4091 
L 703 3866 
L 703 4441 
L 1819 4666 
L 2450 4666 
L 2450 531 
L 3481 531 
L 3481 0 
L 794 0 
L 794 531 
z
" transform="scale(0.015625)"/>
       </defs>
       <use xlink:href="#DejaVuSans-31"/>
      </g>
     </g>
    </g>
    <g id="xtick_3">
     <g id="line2d_4">
      <g>
       <use xlink:href="#m90d2362ca8" x="176.586207" y="320.4" style="stroke: #000000; stroke-width: 0.8"/>
      </g>
     </g>
     <g id="text_3">
      <!-- 2 -->
      <g transform="translate(172.768707 336.518125) scale(0.12 -0.12)">
       <defs>
        <path id="DejaVuSans-32" d="M 1228 531 
L 3431 531 
L 3431 0 
L 469 0 
L 469 531 
Q 828 903 1448 1529 
Q 2069 2156 2228 2338 
Q 2531 2678 2651 2914 
Q 2772 3150 2772 3378 
Q 2772 3750 2511 3984 
Q 2250 4219 1831 4219 
Q 1534 4219 1204 4116 
Q 875 4013 500 3803 
L 500 4441 
Q 881 4594 1212 4672 
Q 1544 4750 1819 4750 
Q 2544 4750 2975 4387 
Q 3406 4025 3406 3419 
Q 3406 3131 3298 2873 
Q 3191 2616 2906 2266 
Q 2828 2175 2409 1742 
Q 1991 1309 1228 531 
z
" transform="scale(0.015625)"/>
       </defs>
       <use xlink:href="#DejaVuSans-32"/>
      </g>
     </g>
    </g>
    <g id="xtick_4">
     <g id="line2d_5">
      <g>
       <use xlink:href="#m90d2362ca8" x="211.570533" y="320.4" style="stroke: #000000; stroke-width: 0.8"/>
      </g>
     </g>
     <g id="text_4">
      <!-- 3 -->
      <g transform="translate(207.753033 336.518125) scale(0.12 -0.12)">
       <defs>
        <path id="DejaVuSans-33" d="M 2597 2516 
Q 3050 2419 3304 2112 
Q 3559 1806 3559 1356 
Q 3559 666 3084 287 
Q 2609 -91 1734 -91 
Q 1441 -91 1130 -33 
Q 819 25 488 141 
L 488 750 
Q 750 597 1062 519 
Q 1375 441 1716 441 
Q 2309 441 2620 675 
Q 2931 909 2931 1356 
Q 2931 1769 2642 2001 
Q 2353 2234 1838 2234 
L 1294 2234 
L 1294 2753 
L 1863 2753 
Q 2328 2753 2575 2939 
Q 2822 3125 2822 3475 
Q 2822 3834 2567 4026 
Q 2313 4219 1838 4219 
Q 1578 4219 1281 4162 
Q 984 4106 628 3988 
L 628 4550 
Q 988 4650 1302 4700 
Q 1616 4750 1894 4750 
Q 2613 4750 3031 4423 
Q 3450 4097 3450 3541 
Q 3450 3153 3228 2886 
Q 3006 2619 2597 2516 
z
" transform="scale(0.015625)"/>
       </defs>
       <use xlink:href="#DejaVuSans-33"/>
      </g>
     </g>
    </g>
    <g id="xtick_5">
     <g id="line2d_6">
      <g>
       <use xlink:href="#m90d2362ca8" x="246.554859" y="320.4" style="stroke: #000000; stroke-width: 0.8"/>
      </g>
     </g>
     <g id="text_5">
      <!-- 4 -->
      <g transform="translate(242.737359 336.518125) scale(0.12 -0.12)">
       <defs>
        <path id="DejaVuSans-34" d="M 2419 4116 
L 825 1625 
L 2419 1625 
L 2419 4116 
z
M 2253 4666 
L 3047 4666 
L 3047 1625 
L 3713 1625 
L 3713 1100 
L 3047 1100 
L 3047 0 
L 2419 0 
L 2419 1100 
L 313 1100 
L 313 1709 
L 2253 4666 
z
" transform="scale(0.015625)"/>
       </defs>
       <use xlink:href="#DejaVuSans-34"/>
      </g>
     </g>
    </g>
    <g id="xtick_6">
     <g id="line2d_7">
      <g>
       <use xlink:href="#m90d2362ca8" x="281.539185" y="320.4" style="stroke: #000000; stroke-width: 0.8"/>
      </g>
     </g>
     <g id="text_6">
      <!-- 5 -->
      <g transform="translate(277.721685 336.518125) scale(0.12 -0.12)">
       <defs>
        <path id="DejaVuSans-35" d="M 691 4666 
L 3169 4666 
L 3169 4134 
L 1269 4134 
L 1269 2991 
Q 1406 3038 1543 3061 
Q 1681 3084 1819 3084 
Q 2600 3084 3056 2656 
Q 3513 2228 3513 1497 
Q 3513 744 3044 326 
Q 2575 -91 1722 -91 
Q 1428 -91 1123 -41 
Q 819 9 494 109 
L 494 744 
Q 775 591 1075 516 
Q 1375 441 1709 441 
Q 2250 441 2565 725 
Q 2881 1009 2881 1497 
Q 2881 1984 2565 2268 
Q 2250 2553 1709 2553 
Q 1456 2553 1204 2497 
Q 953 2441 691 2322 
L 691 4666 
z
" transform="scale(0.015625)"/>
       </defs>
       <use xlink:href="#DejaVuSans-35"/>
      </g>
     </g>
    </g>
    <g id="xtick_7">
     <g id="line2d_8">
      <g>
       <use xlink:href="#m90d2362ca8" x="316.523511" y="320.4" style="stroke: #000000; stroke-width: 0.8"/>
      </g>
     </g>
     <g id="text_7">
      <!-- 6 -->
      <g transform="translate(312.706011 336.518125) scale(0.12 -0.12)">
       <defs>
        <path id="DejaVuSans-36" d="M 2113 2584 
Q 1688 2584 1439 2293 
Q 1191 2003 1191 1497 
Q 1191 994 1439 701 
Q 1688 409 2113 409 
Q 2538 409 2786 701 
Q 3034 994 3034 1497 
Q 3034 2003 2786 2293 
Q 2538 2584 2113 2584 
z
M 3366 4563 
L 3366 3988 
Q 3128 4100 2886 4159 
Q 2644 4219 2406 4219 
Q 1781 4219 1451 3797 
Q 1122 3375 1075 2522 
Q 1259 2794 1537 2939 
Q 1816 3084 2150 3084 
Q 2853 3084 3261 2657 
Q 3669 2231 3669 1497 
Q 3669 778 3244 343 
Q 2819 -91 2113 -91 
Q 1303 -91 875 529 
Q 447 1150 447 2328 
Q 447 3434 972 4092 
Q 1497 4750 2381 4750 
Q 2619 4750 2861 4703 
Q 3103 4656 3366 4563 
z
" transform="scale(0.015625)"/>
       </defs>
       <use xlink:href="#DejaVuSans-36"/>
      </g>
     </g>
    </g>
    <g id="xtick_8">
     <g id="line2d_9">
      <g>
       <use xlink:href="#m90d2362ca8" x="351.507837" y="320.4" style="stroke: #000000; stroke-width: 0.8"/>
      </g>
     </g>
     <g id="text_8">
      <!-- 7 -->
      <g transform="translate(347.690337 336.518125) scale(0.12 -0.12)">
       <defs>
        <path id="DejaVuSans-37" d="M 525 4666 
L 3525 4666 
L 3525 4397 
L 1831 0 
L 1172 0 
L 2766 4134 
L 525 4134 
L 525 4666 
z
" transform="scale(0.015625)"/>
       </defs>
       <use xlink:href="#DejaVuSans-37"/>
      </g>
     </g>
    </g>
    <g id="xtick_9">
     <g id="line2d_10">
      <g>
       <use xlink:href="#m90d2362ca8" x="386.492163" y="320.4" style="stroke: #000000; stroke-width: 0.8"/>
      </g>
     </g>
     <g id="text_9">
      <!-- 8 -->
      <g transform="translate(382.674663 336.518125) scale(0.12 -0.12)">
       <defs>
        <path id="DejaVuSans-38" d="M 2034 2216 
Q 1584 2216 1326 1975 
Q 1069 1734 1069 1313 
Q 1069 891 1326 650 
Q 1584 409 2034 409 
Q 2484 409 2743 651 
Q 3003 894 3003 1313 
Q 3003 1734 2745 1975 
Q 2488 2216 2034 2216 
z
M 1403 2484 
Q 997 2584 770 2862 
Q 544 3141 544 3541 
Q 544 4100 942 4425 
Q 1341 4750 2034 4750 
Q 2731 4750 3128 4425 
Q 3525 4100 3525 3541 
Q 3525 3141 3298 2862 
Q 3072 2584 2669 2484 
Q 3125 2378 3379 2068 
Q 3634 1759 3634 1313 
Q 3634 634 3220 271 
Q 2806 -91 2034 -91 
Q 1263 -91 848 271 
Q 434 634 434 1313 
Q 434 1759 690 2068 
Q 947 2378 1403 2484 
z
M 1172 3481 
Q 1172 3119 1398 2916 
Q 1625 2713 2034 2713 
Q 2441 2713 2670 2916 
Q 2900 3119 2900 3481 
Q 2900 3844 2670 4047 
Q 2441 4250 2034 4250 
Q 1625 4250 1398 4047 
Q 1172 3844 1172 3481 
z
" transform="scale(0.015625)"/>
       </defs>
       <use xlink:href="#DejaVuSans-38"/>
      </g>
     </g>
    </g>
    <g id="xtick_10">
     <g id="line2d_11">
      <g>
       <use xlink:href="#m90d2362ca8" x="421.476489" y="320.4" style="stroke: #000000; stroke-width: 0.8"/>
      </g>
     </g>
     <g id="text_10">
      <!-- 9 -->
      <g transform="translate(417.658989 336.518125) scale(0.12 -0.12)">
       <defs>
        <path id="DejaVuSans-39" d="M 703 97 
L 703 672 
Q 941 559 1184 500 
Q 1428 441 1663 441 
Q 2288 441 2617 861 
Q 2947 1281 2994 2138 
Q 2813 1869 2534 1725 
Q 2256 1581 1919 1581 
Q 1219 1581 811 2004 
Q 403 2428 403 3163 
Q 403 3881 828 4315 
Q 1253 4750 1959 4750 
Q 2769 4750 3195 4129 
Q 3622 3509 3622 2328 
Q 3622 1225 3098 567 
Q 2575 -91 1691 -91 
Q 1453 -91 1209 -44 
Q 966 3 703 97 
z
M 1959 2075 
Q 2384 2075 2632 2365 
Q 2881 2656 2881 3163 
Q 2881 3666 2632 3958 
Q 2384 4250 1959 4250 
Q 1534 4250 1286 3958 
Q 1038 3666 1038 3163 
Q 1038 2656 1286 2365 
Q 1534 2075 1959 2075 
z
" transform="scale(0.015625)"/>
       </defs>
       <use xlink:href="#DejaVuSans-39"/>
      </g>
     </g>
    </g>
    <g id="xtick_11">
     <g id="line2d_12">
      <g>
       <use xlink:href="#m90d2362ca8" x="456.460815" y="320.4" style="stroke: #000000; stroke-width: 0.8"/>
      </g>
     </g>
     <g id="text_11">
      <!-- 10 -->
      <g transform="translate(448.825815 336.518125) scale(0.12 -0.12)">
       <use xlink:href="#DejaVuSans-31"/>
       <use xlink:href="#DejaVuSans-30" x="63.623047"/>
      </g>
     </g>
    </g>
    <g id="xtick_12">
     <g id="line2d_13">
      <g>
       <use xlink:href="#m90d2362ca8" x="491.445141" y="320.4" style="stroke: #000000; stroke-width: 0.8"/>
      </g>
     </g>
     <g id="text_12">
      <!-- 11 -->
      <g transform="translate(483.810141 336.518125) scale(0.12 -0.12)">
       <use xlink:href="#DejaVuSans-31"/>
       <use xlink:href="#DejaVuSans-31" x="63.623047"/>
      </g>
     </g>
    </g>
    <g id="xtick_13">
     <g id="line2d_14">
      <g>
       <use xlink:href="#m90d2362ca8" x="526.429467" y="320.4" style="stroke: #000000; stroke-width: 0.8"/>
      </g>
     </g>
     <g id="text_13">
      <!-- 12 -->
      <g transform="translate(518.794467 336.518125) scale(0.12 -0.12)">
       <use xlink:href="#DejaVuSans-31"/>
       <use xlink:href="#DejaVuSans-32" x="63.623047"/>
      </g>
     </g>
    </g>
    <g id="xtick_14">
     <g id="line2d_15">
      <g>
       <use xlink:href="#m90d2362ca8" x="561.413793" y="320.4" style="stroke: #000000; stroke-width: 0.8"/>
      </g>
     </g>
     <g id="text_14">
      <!-- 13 -->
      <g transform="translate(553.778793 336.518125) scale(0.12 -0.12)">
       <use xlink:href="#DejaVuSans-31"/>
       <use xlink:href="#DejaVuSans-33" x="63.623047"/>
      </g>
     </g>
    </g>
    <g id="xtick_15">
     <g id="line2d_16">
      <g>
       <use xlink:href="#m90d2362ca8" x="596.398119" y="320.4" style="stroke: #000000; stroke-width: 0.8"/>
      </g>
     </g>
     <g id="text_15">
      <!-- 14 -->
      <g transform="translate(588.763119 336.518125) scale(0.12 -0.12)">
       <use xlink:href="#DejaVuSans-31"/>
       <use xlink:href="#DejaVuSans-34" x="63.623047"/>
      </g>
     </g>
    </g>
    <g id="xtick_16">
     <g id="line2d_17">
      <g>
       <use xlink:href="#m90d2362ca8" x="631.382445" y="320.4" style="stroke: #000000; stroke-width: 0.8"/>
      </g>
     </g>
     <g id="text_16">
      <!-- 15 -->
      <g transform="translate(623.747445 336.518125) scale(0.12 -0.12)">
       <use xlink:href="#DejaVuSans-31"/>
       <use xlink:href="#DejaVuSans-35" x="63.623047"/>
      </g>
     </g>
    </g>
    <g id="text_17">
     <!-- Position in Sequence -->
     <g transform="translate(306.762187 352.131875) scale(0.12 -0.12)">
      <defs>
       <path id="DejaVuSans-50" d="M 1259 4147 
L 1259 2394 
L 2053 2394 
Q 2494 2394 2734 2622 
Q 2975 2850 2975 3272 
Q 2975 3691 2734 3919 
Q 2494 4147 2053 4147 
L 1259 4147 
z
M 628 4666 
L 2053 4666 
Q 2838 4666 3239 4311 
Q 3641 3956 3641 3272 
Q 3641 2581 3239 2228 
Q 2838 1875 2053 1875 
L 1259 1875 
L 1259 0 
L 628 0 
L 628 4666 
z
" transform="scale(0.015625)"/>
       <path id="DejaVuSans-6f" d="M 1959 3097 
Q 1497 3097 1228 2736 
Q 959 2375 959 1747 
Q 959 1119 1226 758 
Q 1494 397 1959 397 
Q 2419 397 2687 759 
Q 2956 1122 2956 1747 
Q 2956 2369 2687 2733 
Q 2419 3097 1959 3097 
z
M 1959 3584 
Q 2709 3584 3137 3096 
Q 3566 2609 3566 1747 
Q 3566 888 3137 398 
Q 2709 -91 1959 -91 
Q 1206 -91 779 398 
Q 353 888 353 1747 
Q 353 2609 779 3096 
Q 1206 3584 1959 3584 
z
" transform="scale(0.015625)"/>
       <path id="DejaVuSans-73" d="M 2834 3397 
L 2834 2853 
Q 2591 2978 2328 3040 
Q 2066 3103 1784 3103 
Q 1356 3103 1142 2972 
Q 928 2841 928 2578 
Q 928 2378 1081 2264 
Q 1234 2150 1697 2047 
L 1894 2003 
Q 2506 1872 2764 1633 
Q 3022 1394 3022 966 
Q 3022 478 2636 193 
Q 2250 -91 1575 -91 
Q 1294 -91 989 -36 
Q 684 19 347 128 
L 347 722 
Q 666 556 975 473 
Q 1284 391 1588 391 
Q 1994 391 2212 530 
Q 2431 669 2431 922 
Q 2431 1156 2273 1281 
Q 2116 1406 1581 1522 
L 1381 1569 
Q 847 1681 609 1914 
Q 372 2147 372 2553 
Q 372 3047 722 3315 
Q 1072 3584 1716 3584 
Q 2034 3584 2315 3537 
Q 2597 3491 2834 3397 
z
" transform="scale(0.015625)"/>
       <path id="DejaVuSans-69" d="M 603 3500 
L 1178 3500 
L 1178 0 
L 603 0 
L 603 3500 
z
M 603 4863 
L 1178 4863 
L 1178 4134 
L 603 4134 
L 603 4863 
z
" transform="scale(0.015625)"/>
       <path id="DejaVuSans-74" d="M 1172 4494 
L 1172 3500 
L 2356 3500 
L 2356 3053 
L 1172 3053 
L 1172 1153 
Q 1172 725 1289 603 
Q 1406 481 1766 481 
L 2356 481 
L 2356 0 
L 1766 0 
Q 1100 0 847 248 
Q 594 497 594 1153 
L 594 3053 
L 172 3053 
L 172 3500 
L 594 3500 
L 594 4494 
L 1172 4494 
z
" transform="scale(0.015625)"/>
       <path id="DejaVuSans-6e" d="M 3513 2113 
L 3513 0 
L 2938 0 
L 2938 2094 
Q 2938 2591 2744 2837 
Q 2550 3084 2163 3084 
Q 1697 3084 1428 2787 
Q 1159 2491 1159 1978 
L 1159 0 
L 581 0 
L 581 3500 
L 1159 3500 
L 1159 2956 
Q 1366 3272 1645 3428 
Q 1925 3584 2291 3584 
Q 2894 3584 3203 3211 
Q 3513 2838 3513 2113 
z
" transform="scale(0.015625)"/>
       <path id="DejaVuSans-20" transform="scale(0.015625)"/>
       <path id="DejaVuSans-53" d="M 3425 4513 
L 3425 3897 
Q 3066 4069 2747 4153 
Q 2428 4238 2131 4238 
Q 1616 4238 1336 4038 
Q 1056 3838 1056 3469 
Q 1056 3159 1242 3001 
Q 1428 2844 1947 2747 
L 2328 2669 
Q 3034 2534 3370 2195 
Q 3706 1856 3706 1288 
Q 3706 609 3251 259 
Q 2797 -91 1919 -91 
Q 1588 -91 1214 -16 
Q 841 59 441 206 
L 441 856 
Q 825 641 1194 531 
Q 1563 422 1919 422 
Q 2459 422 2753 634 
Q 3047 847 3047 1241 
Q 3047 1584 2836 1778 
Q 2625 1972 2144 2069 
L 1759 2144 
Q 1053 2284 737 2584 
Q 422 2884 422 3419 
Q 422 4038 858 4394 
Q 1294 4750 2059 4750 
Q 2388 4750 2728 4690 
Q 3069 4631 3425 4513 
z
" transform="scale(0.015625)"/>
       <path id="DejaVuSans-65" d="M 3597 1894 
L 3597 1613 
L 953 1613 
Q 991 1019 1311 708 
Q 1631 397 2203 397 
Q 2534 397 2845 478 
Q 3156 559 3463 722 
L 3463 178 
Q 3153 47 2828 -22 
Q 2503 -91 2169 -91 
Q 1331 -91 842 396 
Q 353 884 353 1716 
Q 353 2575 817 3079 
Q 1281 3584 2069 3584 
Q 2775 3584 3186 3129 
Q 3597 2675 3597 1894 
z
M 3022 2063 
Q 3016 2534 2758 2815 
Q 2500 3097 2075 3097 
Q 1594 3097 1305 2825 
Q 1016 2553 972 2059 
L 3022 2063 
z
" transform="scale(0.015625)"/>
       <path id="DejaVuSans-71" d="M 947 1747 
Q 947 1113 1208 752 
Q 1469 391 1925 391 
Q 2381 391 2643 752 
Q 2906 1113 2906 1747 
Q 2906 2381 2643 2742 
Q 2381 3103 1925 3103 
Q 1469 3103 1208 2742 
Q 947 2381 947 1747 
z
M 2906 525 
Q 2725 213 2448 61 
Q 2172 -91 1784 -91 
Q 1150 -91 751 415 
Q 353 922 353 1747 
Q 353 2572 751 3078 
Q 1150 3584 1784 3584 
Q 2172 3584 2448 3432 
Q 2725 3281 2906 2969 
L 2906 3500 
L 3481 3500 
L 3481 -1331 
L 2906 -1331 
L 2906 525 
z
" transform="scale(0.015625)"/>
       <path id="DejaVuSans-75" d="M 544 1381 
L 544 3500 
L 1119 3500 
L 1119 1403 
Q 1119 906 1312 657 
Q 1506 409 1894 409 
Q 2359 409 2629 706 
Q 2900 1003 2900 1516 
L 2900 3500 
L 3475 3500 
L 3475 0 
L 2900 0 
L 2900 538 
Q 2691 219 2414 64 
Q 2138 -91 1772 -91 
Q 1169 -91 856 284 
Q 544 659 544 1381 
z
M 1991 3584 
L 1991 3584 
z
" transform="scale(0.015625)"/>
       <path id="DejaVuSans-63" d="M 3122 3366 
L 3122 2828 
Q 2878 2963 2633 3030 
Q 2388 3097 2138 3097 
Q 1578 3097 1268 2742 
Q 959 2388 959 1747 
Q 959 1106 1268 751 
Q 1578 397 2138 397 
Q 2388 397 2633 464 
Q 2878 531 3122 666 
L 3122 134 
Q 2881 22 2623 -34 
Q 2366 -91 2075 -91 
Q 1284 -91 818 406 
Q 353 903 353 1747 
Q 353 2603 823 3093 
Q 1294 3584 2113 3584 
Q 2378 3584 2631 3529 
Q 2884 3475 3122 3366 
z
" transform="scale(0.015625)"/>
      </defs>
      <use xlink:href="#DejaVuSans-50"/>
      <use xlink:href="#DejaVuSans-6f" x="56.677734"/>
      <use xlink:href="#DejaVuSans-73" x="117.859375"/>
      <use xlink:href="#DejaVuSans-69" x="169.958984"/>
      <use xlink:href="#DejaVuSans-74" x="197.742188"/>
      <use xlink:href="#DejaVuSans-69" x="236.951172"/>
      <use xlink:href="#DejaVuSans-6f" x="264.734375"/>
      <use xlink:href="#DejaVuSans-6e" x="325.916016"/>
      <use xlink:href="#DejaVuSans-20" x="389.294922"/>
      <use xlink:href="#DejaVuSans-69" x="421.082031"/>
      <use xlink:href="#DejaVuSans-6e" x="448.865234"/>
      <use xlink:href="#DejaVuSans-20" x="512.244141"/>
      <use xlink:href="#DejaVuSans-53" x="544.03125"/>
      <use xlink:href="#DejaVuSans-65" x="607.507812"/>
      <use xlink:href="#DejaVuSans-71" x="669.03125"/>
      <use xlink:href="#DejaVuSans-75" x="732.507812"/>
      <use xlink:href="#DejaVuSans-65" x="795.886719"/>
      <use xlink:href="#DejaVuSans-6e" x="857.410156"/>
      <use xlink:href="#DejaVuSans-63" x="920.789062"/>
      <use xlink:href="#DejaVuSans-65" x="975.769531"/>
     </g>
    </g>
   </g>
   <g id="matplotlib.axis_2">
    <g id="ytick_1">
     <g id="line2d_18">
      <defs>
       <path id="md22ac75224" d="M 0 0 
L -3.5 0 
" style="stroke: #000000; stroke-width: 0.8"/>
      </defs>
      <g>
       <use xlink:href="#md22ac75224" x="90" y="320.4" style="stroke: #000000; stroke-width: 0.8"/>
      </g>
     </g>
     <g id="text_18">
      <!-- 0.0 -->
      <g transform="translate(63.91625 324.959063) scale(0.12 -0.12)">
       <defs>
        <path id="DejaVuSans-2e" d="M 684 794 
L 1344 794 
L 1344 0 
L 684 0 
L 684 794 
z
" transform="scale(0.015625)"/>
       </defs>
       <use xlink:href="#DejaVuSans-30"/>
       <use xlink:href="#DejaVuSans-2e" x="63.623047"/>
       <use xlink:href="#DejaVuSans-30" x="95.410156"/>
      </g>
     </g>
    </g>
    <g id="ytick_2">
     <g id="line2d_19">
      <g>
       <use xlink:href="#md22ac75224" x="90" y="273.432512" style="stroke: #000000; stroke-width: 0.8"/>
      </g>
     </g>
     <g id="text_19">
      <!-- 0.5 -->
      <g transform="translate(63.91625 277.991575) scale(0.12 -0.12)">
       <use xlink:href="#DejaVuSans-30"/>
       <use xlink:href="#DejaVuSans-2e" x="63.623047"/>
       <use xlink:href="#DejaVuSans-35" x="95.410156"/>
      </g>
     </g>
    </g>
    <g id="ytick_3">
     <g id="line2d_20">
      <g>
       <use xlink:href="#md22ac75224" x="90" y="226.465024" style="stroke: #000000; stroke-width: 0.8"/>
      </g>
     </g>
     <g id="text_20">
      <!-- 1.0 -->
      <g transform="translate(63.91625 231.024087) scale(0.12 -0.12)">
       <use xlink:href="#DejaVuSans-31"/>
       <use xlink:href="#DejaVuSans-2e" x="63.623047"/>
       <use xlink:href="#DejaVuSans-30" x="95.410156"/>
      </g>
     </g>
    </g>
    <g id="ytick_4">
     <g id="line2d_21">
      <g>
       <use xlink:href="#md22ac75224" x="90" y="179.497536" style="stroke: #000000; stroke-width: 0.8"/>
      </g>
     </g>
     <g id="text_21">
      <!-- 1.5 -->
      <g transform="translate(63.91625 184.056599) scale(0.12 -0.12)">
       <use xlink:href="#DejaVuSans-31"/>
       <use xlink:href="#DejaVuSans-2e" x="63.623047"/>
       <use xlink:href="#DejaVuSans-35" x="95.410156"/>
      </g>
     </g>
    </g>
    <g id="ytick_5">
     <g id="line2d_22">
      <g>
       <use xlink:href="#md22ac75224" x="90" y="132.530048" style="stroke: #000000; stroke-width: 0.8"/>
      </g>
     </g>
     <g id="text_22">
      <!-- 2.0 -->
      <g transform="translate(63.91625 137.089111) scale(0.12 -0.12)">
       <use xlink:href="#DejaVuSans-32"/>
       <use xlink:href="#DejaVuSans-2e" x="63.623047"/>
       <use xlink:href="#DejaVuSans-30" x="95.410156"/>
      </g>
     </g>
    </g>
    <g id="ytick_6">
     <g id="line2d_23">
      <g>
       <use xlink:href="#md22ac75224" x="90" y="85.562561" style="stroke: #000000; stroke-width: 0.8"/>
      </g>
     </g>
     <g id="text_23">
      <!-- 2.5 -->
      <g transform="translate(63.91625 90.121623) scale(0.12 -0.12)">
       <use xlink:href="#DejaVuSans-32"/>
       <use xlink:href="#DejaVuSans-2e" x="63.623047"/>
       <use xlink:href="#DejaVuSans-35" x="95.410156"/>
      </g>
     </g>
    </g>
    <g id="text_24">
     <!-- Information (bits) -->
     <g transform="translate(57.420625 234.074062) rotate(-90) scale(0.12 -0.12)">
      <defs>
       <path id="DejaVuSans-49" d="M 628 4666 
L 1259 4666 
L 1259 0 
L 628 0 
L 628 4666 
z
" transform="scale(0.015625)"/>
       <path id="DejaVuSans-66" d="M 2375 4863 
L 2375 4384 
L 1825 4384 
Q 1516 4384 1395 4259 
Q 1275 4134 1275 3809 
L 1275 3500 
L 2222 3500 
L 2222 3053 
L 1275 3053 
L 1275 0 
L 697 0 
L 697 3053 
L 147 3053 
L 147 3500 
L 697 3500 
L 697 3744 
Q 697 4328 969 4595 
Q 1241 4863 1831 4863 
L 2375 4863 
z
" transform="scale(0.015625)"/>
       <path id="DejaVuSans-72" d="M 2631 2963 
Q 2534 3019 2420 3045 
Q 2306 3072 2169 3072 
Q 1681 3072 1420 2755 
Q 1159 2438 1159 1844 
L 1159 0 
L 581 0 
L 581 3500 
L 1159 3500 
L 1159 2956 
Q 1341 3275 1631 3429 
Q 1922 3584 2338 3584 
Q 2397 3584 2469 3576 
Q 2541 3569 2628 3553 
L 2631 2963 
z
" transform="scale(0.015625)"/>
       <path id="DejaVuSans-6d" d="M 3328 2828 
Q 3544 3216 3844 3400 
Q 4144 3584 4550 3584 
Q 5097 3584 5394 3201 
Q 5691 2819 5691 2113 
L 5691 0 
L 5113 0 
L 5113 2094 
Q 5113 2597 4934 2840 
Q 4756 3084 4391 3084 
Q 3944 3084 3684 2787 
Q 3425 2491 3425 1978 
L 3425 0 
L 2847 0 
L 2847 2094 
Q 2847 2600 2669 2842 
Q 2491 3084 2119 3084 
Q 1678 3084 1418 2786 
Q 1159 2488 1159 1978 
L 1159 0 
L 581 0 
L 581 3500 
L 1159 3500 
L 1159 2956 
Q 1356 3278 1631 3431 
Q 1906 3584 2284 3584 
Q 2666 3584 2933 3390 
Q 3200 3197 3328 2828 
z
" transform="scale(0.015625)"/>
       <path id="DejaVuSans-61" d="M 2194 1759 
Q 1497 1759 1228 1600 
Q 959 1441 959 1056 
Q 959 750 1161 570 
Q 1363 391 1709 391 
Q 2188 391 2477 730 
Q 2766 1069 2766 1631 
L 2766 1759 
L 2194 1759 
z
M 3341 1997 
L 3341 0 
L 2766 0 
L 2766 531 
Q 2569 213 2275 61 
Q 1981 -91 1556 -91 
Q 1019 -91 701 211 
Q 384 513 384 1019 
Q 384 1609 779 1909 
Q 1175 2209 1959 2209 
L 2766 2209 
L 2766 2266 
Q 2766 2663 2505 2880 
Q 2244 3097 1772 3097 
Q 1472 3097 1187 3025 
Q 903 2953 641 2809 
L 641 3341 
Q 956 3463 1253 3523 
Q 1550 3584 1831 3584 
Q 2591 3584 2966 3190 
Q 3341 2797 3341 1997 
z
" transform="scale(0.015625)"/>
       <path id="DejaVuSans-28" d="M 1984 4856 
Q 1566 4138 1362 3434 
Q 1159 2731 1159 2009 
Q 1159 1288 1364 580 
Q 1569 -128 1984 -844 
L 1484 -844 
Q 1016 -109 783 600 
Q 550 1309 550 2009 
Q 550 2706 781 3412 
Q 1013 4119 1484 4856 
L 1984 4856 
z
" transform="scale(0.015625)"/>
       <path id="DejaVuSans-62" d="M 3116 1747 
Q 3116 2381 2855 2742 
Q 2594 3103 2138 3103 
Q 1681 3103 1420 2742 
Q 1159 2381 1159 1747 
Q 1159 1113 1420 752 
Q 1681 391 2138 391 
Q 2594 391 2855 752 
Q 3116 1113 3116 1747 
z
M 1159 2969 
Q 1341 3281 1617 3432 
Q 1894 3584 2278 3584 
Q 2916 3584 3314 3078 
Q 3713 2572 3713 1747 
Q 3713 922 3314 415 
Q 2916 -91 2278 -91 
Q 1894 -91 1617 61 
Q 1341 213 1159 525 
L 1159 0 
L 581 0 
L 581 4863 
L 1159 4863 
L 1159 2969 
z
" transform="scale(0.015625)"/>
       <path id="DejaVuSans-29" d="M 513 4856 
L 1013 4856 
Q 1481 4119 1714 3412 
Q 1947 2706 1947 2009 
Q 1947 1309 1714 600 
Q 1481 -109 1013 -844 
L 513 -844 
Q 928 -128 1133 580 
Q 1338 1288 1338 2009 
Q 1338 2731 1133 3434 
Q 928 4138 513 4856 
z
" transform="scale(0.015625)"/>
      </defs>
      <use xlink:href="#DejaVuSans-49"/>
      <use xlink:href="#DejaVuSans-6e" x="29.492188"/>
      <use xlink:href="#DejaVuSans-66" x="92.871094"/>
      <use xlink:href="#DejaVuSans-6f" x="128.076172"/>
      <use xlink:href="#DejaVuSans-72" x="189.257812"/>
      <use xlink:href="#DejaVuSans-6d" x="228.621094"/>
      <use xlink:href="#DejaVuSans-61" x="326.033203"/>
      <use xlink:href="#DejaVuSans-74" x="387.3125"/>
      <use xlink:href="#DejaVuSans-69" x="426.521484"/>
      <use xlink:href="#DejaVuSans-6f" x="454.304688"/>
      <use xlink:href="#DejaVuSans-6e" x="515.486328"/>
      <use xlink:href="#DejaVuSans-20" x="578.865234"/>
      <use xlink:href="#DejaVuSans-28" x="610.652344"/>
      <use xlink:href="#DejaVuSans-62" x="649.666016"/>
      <use xlink:href="#DejaVuSans-69" x="713.142578"/>
      <use xlink:href="#DejaVuSans-74" x="740.925781"/>
      <use xlink:href="#DejaVuSans-73" x="780.134766"/>
      <use xlink:href="#DejaVuSans-29" x="832.234375"/>
     </g>
    </g>
   </g>
   <g id="patch_75">
    <path d="M 90 320.4 
L 90 43.2 
" style="fill: none; stroke: #000000; stroke-width: 0.8; stroke-linejoin: miter; stroke-linecap: square"/>
   </g>
   <g id="patch_76">
    <path d="M 648 320.4 
L 648 43.2 
" style="fill: none; stroke: #000000; stroke-width: 0.8; stroke-linejoin: miter; stroke-linecap: square"/>
   </g>
   <g id="patch_77">
    <path d="M 90 320.4 
L 648 320.4 
" style="fill: none; stroke: #000000; stroke-width: 0.8; stroke-linejoin: miter; stroke-linecap: square"/>
   </g>
   <g id="patch_78">
    <path d="M 90 43.2 
L 648 43.2 
" style="fill: none; stroke: #000000; stroke-width: 0.8; stroke-linejoin: miter; stroke-linecap: square"/>
   </g>
   <g id="text_25">
    <!-- Sequence Logo -->
    <g transform="translate(307.8075 37.2) scale(0.16 -0.16)">
     <defs>
      <path id="DejaVuSans-4c" d="M 628 4666 
L 1259 4666 
L 1259 531 
L 3531 531 
L 3531 0 
L 628 0 
L 628 4666 
z
" transform="scale(0.015625)"/>
      <path id="DejaVuSans-67" d="M 2906 1791 
Q 2906 2416 2648 2759 
Q 2391 3103 1925 3103 
Q 1463 3103 1205 2759 
Q 947 2416 947 1791 
Q 947 1169 1205 825 
Q 1463 481 1925 481 
Q 2391 481 2648 825 
Q 2906 1169 2906 1791 
z
M 3481 434 
Q 3481 -459 3084 -895 
Q 2688 -1331 1869 -1331 
Q 1566 -1331 1297 -1286 
Q 1028 -1241 775 -1147 
L 775 -588 
Q 1028 -725 1275 -790 
Q 1522 -856 1778 -856 
Q 2344 -856 2625 -561 
Q 2906 -266 2906 331 
L 2906 616 
Q 2728 306 2450 153 
Q 2172 0 1784 0 
Q 1141 0 747 490 
Q 353 981 353 1791 
Q 353 2603 747 3093 
Q 1141 3584 1784 3584 
Q 2172 3584 2450 3431 
Q 2728 3278 2906 2969 
L 2906 3500 
L 3481 3500 
L 3481 434 
z
" transform="scale(0.015625)"/>
     </defs>
     <use xlink:href="#DejaVuSans-53"/>
     <use xlink:href="#DejaVuSans-65" x="63.476562"/>
     <use xlink:href="#DejaVuSans-71" x="125"/>
     <use xlink:href="#DejaVuSans-75" x="188.476562"/>
     <use xlink:href="#DejaVuSans-65" x="251.855469"/>
     <use xlink:href="#DejaVuSans-6e" x="313.378906"/>
     <use xlink:href="#DejaVuSans-63" x="376.757812"/>
     <use xlink:href="#DejaVuSans-65" x="431.738281"/>
     <use xlink:href="#DejaVuSans-20" x="493.261719"/>
     <use xlink:href="#DejaVuSans-4c" x="525.048828"/>
     <use xlink:href="#DejaVuSans-6f" x="579.011719"/>
     <use xlink:href="#DejaVuSans-67" x="640.193359"/>
     <use xlink:href="#DejaVuSans-6f" x="703.669922"/>
    </g>
   </g>
  </g>
 </g>
 <defs>
  <clipPath id="pf8726d9a68">
   <rect x="90" y="43.2" width="558" height="277.2"/>
  </clipPath>
 </defs>
</svg>
